<svg width="64" height="16" viewBox="0 0 64 16" fill="none" xmlns="http://www.w3.org/2000/svg">
<path d="M22.4562 11.1699H20.1539V13.9965H17.8574V6H23.3617C25.9549 6 26.7071 7.31817 26.7071 8.53673C26.7071 9.42904 26.2517 10.4747 24.8881 10.9011L27.0307 14.0002H24.4211L22.4562 11.1699ZM20.1539 9.71892H23.1988C24.3125 9.71892 24.642 9.16709 24.642 8.60472C24.642 8.04235 24.3131 7.52267 23.2099 7.52267H20.1539V9.71892Z" fill="#313535"/>
<path d="M36.9919 12.4095V13.9965H28.7568V6H36.9123V7.58697H31.0538V9.19924H36.7173V10.6861H31.0575V12.4095H36.9924H36.9919Z" fill="#313535"/>
<path d="M46.069 12.3879H41.5662L40.8178 14.0002H38.3516L42.3842 6H45.2521L49.2774 14.0002H46.8217L46.0696 12.3879H46.069ZM42.2467 10.9333H45.3859L43.8058 7.36139L42.2472 10.9333H42.2467Z" fill="#313535"/>
<path d="M59.6625 8.65848C59.6625 10.3709 58.3205 11.4635 56.2375 11.4635H53.0982V14.0002H50.8018V6H56.2955C58.4001 6 59.6625 7.00299 59.6625 8.65848ZM57.6121 8.7154C57.6121 7.94853 57.0661 7.52214 56.1005 7.52214H53.0988V9.94397H56.0857C57.055 9.94397 57.6116 9.49281 57.6116 8.71487L57.6121 8.7154Z" fill="#313535"/>
<path d="M12.8946 4.52144C13.0443 4.23051 13.0727 4.17464 13.2224 3.8837L11.9184 2H10.0858C9.93555 2.29199 9.90709 2.3468 9.75687 2.63827L10.7625 4.09084L10.4705 4.65848H7.91685C7.76505 4.94572 7.735 5.00317 7.58321 5.29095L9.05375 7.41446L8.5973 8.30203H5.33206C5.18079 8.59085 5.15127 8.64725 5 8.93608L8.50085 13.9958L12.4297 13.9927C12.5841 13.698 12.6142 13.6401 12.7686 13.3454L9.30886 8.34103L9.48543 7.99792L12.0212 7.99528C12.1714 7.70382 12.1999 7.649 12.3501 7.35754L10.8954 5.25511L11.2691 4.5283L12.8951 4.52144H12.8946Z" fill="#313535"/>
</svg>
