<svg width="73" height="20" viewBox="0 0 73 20" fill="none" xmlns="http://www.w3.org/2000/svg">
<g clip-path="url(#clip0_11967_22668)">
<path fill-rule="evenodd" clip-rule="evenodd" d="M11.6786 14.5357C11.6786 14.2857 11.5 14.1071 11.25 14.1071C10.8571 14.1429 10.2857 14.1429 9.92857 14.1429C7.64286 14.1429 5.82143 12.2857 5.82143 10V0.142857C5.82143 0.0714286 5.75 0 5.67857 0H0.107143C0.0357143 0 0 0.0357143 0 0.107143V10C0 15.5 4.46429 20 9.92857 20C10.4643 20 11.0357 19.9643 11.5357 19.8571C11.6071 19.8571 11.6429 19.7857 11.6429 19.7143V14.5357H11.6786Z" fill="#191E23"/>
<path fill-rule="evenodd" clip-rule="evenodd" d="M9.92871 0C9.35728 0 8.82157 0.0357143 8.28585 0.142857C8.21443 0.142857 8.17871 0.214286 8.17871 0.285714V5.5C8.17871 5.75 8.35728 5.92857 8.60728 5.92857C8.82157 5.89286 9.92871 5.89286 9.92871 5.89286C12.2144 5.89286 14.0359 7.75 14.0359 10.0357V19.0357C14.0359 19.0714 14.0716 19.1071 14.1073 19.0714C17.5359 17.5 19.893 14.0357 19.893 10C19.893 4.46429 15.4287 0 9.92871 0Z" fill="#191E23"/>
<path fill-rule="evenodd" clip-rule="evenodd" d="M67.2857 5.74916C63.6071 5.74916 62 8.24916 62 11.6063C62 14.9277 63.9286 16.9277 66.9643 16.9277C70.6429 16.9277 72.25 14.4634 72.25 11.142C72.2143 7.82059 70.3214 5.74916 67.2857 5.74916ZM68.5 14.1063C68.1071 14.392 67.6429 14.5349 67 14.5349C65.7857 14.5349 65.0357 13.4634 65.0357 11.5706C65.0357 10.4992 65.25 9.57059 65.6071 9.07059C66 8.74916 66.5 8.60631 67.1071 8.60631C68.4286 8.60631 69.0714 9.67773 69.0714 11.2492C69.0357 12.4277 68.8571 13.4634 68.5 14.1063ZM57 10.3206C55.3929 10.0349 55.0357 9.85631 55.0357 9.35631C55.0357 9.10631 55.1071 8.89202 55.2143 8.78488C55.6071 8.64202 56.25 8.57059 56.8929 8.57059C58.1786 8.57059 59.2857 8.74916 60.2143 9.07059V6.53488C59.5 6.17773 58.2857 5.82059 56.6429 5.82059C53.8214 5.82059 52.0714 7.14202 52.0714 9.42773C52.0714 11.6063 53.3571 12.2849 55.7143 12.7134C57.4643 13.0349 57.8214 13.2134 57.8214 13.7492C57.8214 13.9992 57.75 14.1777 57.6786 14.2849C57.25 14.4277 56.6429 14.5349 55.75 14.5349C54.5714 14.5349 53.1786 14.2849 52.3571 13.9992V16.4992C53.25 16.8563 54.6071 17.0349 55.8571 17.0349C58.8571 17.0349 60.7857 16.1063 60.7857 13.6777C60.7857 11.5349 59.5357 10.7849 57 10.3206ZM34.3214 9.82059C35.3214 9.24916 36.1786 8.28488 36.1786 6.89202C36.1786 4.57059 34.3929 3.32059 30.6429 3.32059H25.25V16.7492H31.5C34.8214 16.7492 36.5357 15.4634 36.5357 12.9277C36.5357 11.2492 35.5714 10.3206 34.3214 9.82059ZM28.5357 5.89202C29.0714 5.85631 29.7143 5.85631 30.4643 5.85631C32.1786 5.85631 32.9286 6.35631 32.9286 7.49916C32.9286 8.14202 32.6786 8.57059 32.1071 8.99916C31.6429 9.10631 31.1429 9.14202 30.5 9.14202C29.75 9.14202 29.0714 9.10631 28.5357 9.10631V5.89202ZM32.7143 14.392C32.2857 14.4992 31.5714 14.5349 30.9643 14.5349C29.9643 14.5349 29.1429 14.4992 28.5357 14.4992V11.392H30.8571C32.5357 11.392 33.25 11.892 33.25 12.9992C33.2143 13.5349 33.0357 13.9992 32.7143 14.392ZM38.7143 16.7492H41.8571V5.96345H38.7143V16.7492ZM47.7143 3.28488L44.6786 3.53488V13.7134C44.6786 15.7134 45.6071 16.9277 47.8929 16.9277C48.8571 16.9277 49.6429 16.7492 50.3214 16.4634V13.9634C49.6786 14.2134 49.1071 14.3206 48.5 14.3206C47.9643 14.3206 47.7143 14.0349 47.7143 13.5349V8.46345H50.2857V5.96345H47.7143V3.28488ZM41.8929 4.10631V1.42773L38.75 1.67773V4.14202H41.8929V4.10631Z" fill="#191E23"/>
</g>
<defs>
<clipPath id="clip0_11967_22668">
<rect width="72.2143" height="20" fill="white"/>
</clipPath>
</defs>
</svg>
