<svg width="80" height="20" viewBox="0 0 80 20" fill="none" xmlns="http://www.w3.org/2000/svg">
<path fill-rule="evenodd" clip-rule="evenodd" d="M35.2114 0.0394982C35.043 -0.0221785 34.8761 0.000439007 34.7519 0.0264979C34.6276 0.0525863 34.4762 0.0990869 34.3076 0.150867L29.091 1.75277C28.8735 1.81956 28.6856 1.87724 28.5439 1.93474C28.4117 1.9884 28.2281 2.07507 28.1185 2.25014C27.9849 2.46346 27.9629 2.72821 28.0595 2.96072C28.1388 3.15141 28.3056 3.26701 28.4272 3.34161C28.5575 3.42157 28.7332 3.50925 28.9367 3.61079L30.9733 4.62703C31.0104 4.64555 31.0286 4.65472 31.0418 4.6619L31.0425 4.66228L31.0431 4.66334C31.0502 4.67634 31.0594 4.69456 31.0779 4.73144L32.0952 6.76208C32.1974 6.96605 32.2856 7.14208 32.366 7.27253C32.4409 7.39385 32.5567 7.56032 32.7477 7.63929C32.9806 7.73576 33.2457 7.71385 33.4595 7.58062C33.635 7.4712 33.7218 7.28797 33.7756 7.15606C33.8332 7.01458 33.891 6.82708 33.9579 6.61002L35.5631 1.40345C35.6149 1.23536 35.6615 1.08437 35.6876 0.960399C35.7138 0.836472 35.7365 0.669824 35.6747 0.50178C35.5957 0.287146 35.4261 0.11819 35.2114 0.0394982ZM34.5204 0.899634C34.7105 0.841266 34.8272 0.805825 34.9123 0.787972C34.9179 0.78681 34.923 0.78578 34.9277 0.784883C34.9268 0.789618 34.9258 0.794721 34.9247 0.800221C34.9068 0.885178 34.8712 1.00169 34.8127 1.19139L33.2181 6.36385C33.1443 6.60296 33.0964 6.75708 33.0533 6.86297C33.0499 6.87135 33.0466 6.87914 33.0436 6.88605C33.0394 6.87958 33.0349 6.87252 33.0301 6.86473C32.9701 6.76738 32.8974 6.62326 32.7853 6.39958L31.8079 4.44866L33.5284 2.73157C33.6807 2.57963 33.6807 2.33329 33.5284 2.18134C33.3762 2.02942 33.1293 2.02942 32.9771 2.18134L31.2566 3.89844L29.3018 2.92302C29.0776 2.8111 28.9331 2.73863 28.8356 2.67877C28.8278 2.67398 28.8207 2.66951 28.8142 2.66535C28.8213 2.66229 28.829 2.65902 28.8376 2.65557C28.9436 2.61252 29.0981 2.56473 29.3377 2.49114L34.5204 0.899634Z" fill="#13141A"/>
<path d="M36.7943 3.86133C36.7127 3.86133 36.6465 3.92734 36.6465 4.00875V10.2889C36.6465 10.3702 36.7127 10.4362 36.7943 10.4362H37.8666C37.9483 10.4362 38.0143 10.3702 38.0143 10.2889V6.62488L39.4668 9.15048C39.4931 9.19622 39.5419 9.22445 39.5949 9.22445H40.295C40.348 9.22445 40.3968 9.19622 40.4231 9.15048L41.8844 6.60959V10.2889C41.8844 10.3702 41.9506 10.4362 42.0321 10.4362H43.1046C43.1861 10.4362 43.2522 10.3702 43.2522 10.2889V4.00875C43.2522 3.92734 43.1861 3.86133 43.1046 3.86133H42.0321C41.9783 3.86133 41.9287 3.89058 41.9028 3.93765L39.9494 7.47842L37.996 3.93765C37.97 3.89058 37.9205 3.86133 37.8666 3.86133H36.7943Z" fill="#13141A"/>
<path d="M44.5145 3.87109C44.0607 3.87109 43.7021 4.23783 43.7021 4.67305C43.7021 5.11583 44.0594 5.48387 44.5145 5.48387C44.967 5.48387 45.3358 5.11839 45.3358 4.67305C45.3358 4.23529 44.9657 3.87109 44.5145 3.87109Z" fill="#13141A"/>
<path d="M50.4839 4.67305C50.4839 4.23783 50.8424 3.87109 51.2962 3.87109C51.7476 3.87109 52.1176 4.23529 52.1176 4.67305C52.1176 5.11839 51.7489 5.48387 51.2962 5.48387C50.8412 5.48387 50.4839 5.11583 50.4839 4.67305Z" fill="#13141A"/>
<path d="M48.3824 5.76367C47.8927 5.76367 47.4302 5.92404 47.0679 6.22742V5.97301C47.0679 5.89154 47.0017 5.82558 46.9201 5.82558H45.9274C45.8458 5.82558 45.7798 5.89154 45.7798 5.97301V10.2895C45.7798 10.3708 45.8458 10.4369 45.9274 10.4369H46.9201C47.0017 10.4369 47.0679 10.3708 47.0679 10.2895V8.12243C47.0679 7.72214 47.1721 7.43096 47.3373 7.24184C47.5002 7.05522 47.7363 6.95184 48.0369 6.95184C48.3108 6.95184 48.4955 7.01875 48.6172 7.16022C48.7436 7.30743 48.8286 7.56508 48.8286 8.00743V10.2895C48.8286 10.3708 48.8947 10.4369 48.9763 10.4369H49.9689C50.0505 10.4369 50.1166 10.3708 50.1166 10.2895V7.75081C50.1166 7.0786 49.9517 6.57698 49.6394 6.24286C49.3254 5.90713 48.8844 5.76367 48.3824 5.76367Z" fill="#13141A"/>
<path d="M43.8701 5.9736C43.8701 5.89213 43.9361 5.82617 44.0178 5.82617H45.0104C45.092 5.82617 45.1581 5.89213 45.1581 5.9736V10.2901C45.1581 10.3714 45.092 10.4374 45.0104 10.4374H44.0178C43.9361 10.4374 43.8701 10.3714 43.8701 10.2901V5.9736Z" fill="#13141A"/>
<path d="M50.8 5.82617C50.7185 5.82617 50.6523 5.89213 50.6523 5.9736V10.2901C50.6523 10.3714 50.7185 10.4374 50.8 10.4374H51.7926C51.8743 10.4374 51.9404 10.3714 51.9404 10.2901V5.9736C51.9404 5.89213 51.8743 5.82617 51.7926 5.82617H50.8Z" fill="#13141A"/>
<path fill-rule="evenodd" clip-rule="evenodd" d="M29.374 9.14359C29.374 9.06212 29.4402 8.99609 29.5217 8.99609H32.5587C33.5917 8.99609 34.3524 9.29404 34.8542 9.81374C35.3549 10.3324 35.578 11.0517 35.578 11.8561C35.578 12.7999 35.257 13.5141 34.6842 13.9891C34.1157 14.4605 33.3184 14.6807 32.3933 14.6807H31.0993V17.517C31.0993 17.5983 31.0332 17.6644 30.9516 17.6644H29.5217C29.4402 17.6644 29.374 17.5983 29.374 17.517V9.14359ZM31.0993 10.5646V13.1002H32.2515C32.813 13.1002 33.1986 12.9589 33.4422 12.7401C33.6839 12.5232 33.8054 12.2127 33.8054 11.8324C33.8054 11.4229 33.6751 11.1124 33.4421 10.9027C33.2069 10.6911 32.8478 10.5646 32.3578 10.5646H31.0993Z" fill="#13141A"/>
<path fill-rule="evenodd" clip-rule="evenodd" d="M38.3979 11.5332C36.7238 11.5332 35.4731 12.8588 35.4731 14.6644C35.4731 15.5884 35.7833 16.3637 36.3107 16.9088C36.8384 17.4541 37.5748 17.7603 38.4097 17.7603C39.1132 17.7603 39.6882 17.5353 40.1172 17.1173V17.5185C40.1172 17.5998 40.1834 17.6659 40.265 17.6659H41.5294C41.611 17.6659 41.6771 17.5998 41.6771 17.5185V11.7632C41.6771 11.6819 41.611 11.6158 41.5294 11.6158H40.2059C40.1243 11.6158 40.0582 11.6819 40.0582 11.7632V12.1244C39.6235 11.7326 39.0404 11.5332 38.3979 11.5332ZM37.1157 14.6763C37.1157 14.1551 37.2873 13.7419 37.5564 13.46C37.8256 13.1782 38.1998 13.0192 38.6223 13.0192C39.4725 13.0192 40.1172 13.7173 40.1172 14.6763C40.1172 15.6354 39.4362 16.2625 38.6223 16.2625C38.1698 16.2625 37.7959 16.0973 37.5347 15.822C37.2728 15.5462 37.1157 15.1506 37.1157 14.6763Z" fill="#13141A"/>
<path d="M42.0834 11.6817C42.1107 11.6402 42.157 11.6152 42.2069 11.6152H43.6248C43.6848 11.6152 43.7388 11.6514 43.7616 11.7067L45.2159 15.2485L46.5712 11.7099C46.5931 11.6529 46.6479 11.6152 46.7091 11.6152H48.0681C48.1169 11.6152 48.1625 11.6392 48.1901 11.6795C48.2176 11.7196 48.2234 11.771 48.2057 11.8163L45.0387 19.9066C45.0166 19.9632 44.9619 20.0004 44.9012 20.0004H43.5303C43.4816 20.0004 43.4359 19.9763 43.4084 19.9361C43.3809 19.8959 43.375 19.8447 43.3928 19.7992L44.4104 17.2023L42.0713 11.8213C42.0514 11.7757 42.056 11.7233 42.0834 11.6817Z" fill="#13141A"/>
</svg>
