<svg width="100" height="24" viewBox="0 0 100 24" fill="none" xmlns="http://www.w3.org/2000/svg">
<g id="Company Logo" clip-path="url(#clip0_11967_22703)">
<path id="Vector" d="M22.2317 0H2.91463C1.58107 0 0.5 1.07452 0.5 2.4V21.6C0.5 22.9255 1.58107 24 2.91463 24H22.2317C23.5653 24 24.6463 22.9255 24.6463 21.6V2.4C24.6463 1.07452 23.5653 0 22.2317 0Z" fill="#040404"/>
<path id="Vector_2" d="M13.02 4C12.773 4 12.5728 4.19899 12.5728 4.44445V6.66667C12.5728 6.91213 12.3726 7.11112 12.1257 7.11112H9.8899C9.64295 7.11112 9.44274 7.31008 9.44274 7.55554V9.86668C9.44274 10.1121 9.64295 10.3111 9.8899 10.3111H12.2151C12.4621 10.3111 12.6622 10.1121 12.6622 9.86668V7.64443C12.6622 7.39897 12.8624 7.20001 13.1094 7.20001H15.3452C15.5921 7.20001 15.7923 7.39897 15.7923 7.64443V13.1556C15.7923 13.401 15.5921 13.6 15.3452 13.6H9.80047C9.55351 13.6 9.35331 13.401 9.35331 13.1556V10.8444C9.35331 10.599 9.15311 10.4 8.90615 10.4H6.58095C6.33399 10.4 6.13379 10.599 6.13379 10.8444V19.5555C6.13379 19.801 6.33399 20 6.58095 20H8.90615C9.15311 20 9.35331 19.801 9.35331 19.5555V17.2444C9.35331 16.999 9.55351 16.8 9.80047 16.8H15.3452C15.5921 16.8 15.7923 16.999 15.7923 17.2444V19.5555C15.7923 19.801 15.9925 20 16.2395 20H18.5647C18.8116 20 19.0118 19.801 19.0118 19.5555V4.44445C19.0118 4.19899 18.8116 4 18.5647 4H13.02Z" fill="white"/>
<path id="Vector_3" opacity="0.2" d="M3.21631 0V24" stroke="white" stroke-width="0.666667"/>
<path id="Vector_4" opacity="0.2" d="M22.1309 0V24" stroke="white" stroke-width="0.666667"/>
<path id="Vector_5" opacity="0.2" d="M0.5 21.3008H24.6463" stroke="white" stroke-width="0.666667"/>
<path id="Vector_6" opacity="0.2" d="M0.5 2.50001L24.6463 2.5" stroke="white" stroke-width="0.666667"/>
<path id="Vector_7" d="M30.6641 18.7493L35.5486 5.24219H39.0078L43.9113 18.7493H40.3763L39.578 16.3123H34.8263L34.0473 18.7493H30.6641ZM35.6056 13.9132H38.7987L37.7724 10.645C37.5443 9.94607 37.2403 8.73704 37.2403 8.73704H37.2023C37.2023 8.73704 36.879 9.94607 36.6511 10.645L35.6056 13.9132ZM44.6768 18.7493V9.07709H47.6417V10.5884H47.6987C48.3829 9.43601 49.1813 8.92595 50.3596 8.92595C50.6446 8.92595 50.8347 8.94485 50.9678 9.00152V11.6463H50.8918C48.9911 11.3818 47.7748 12.3074 47.7748 14.4043V18.7493H44.6768ZM55.9963 18.8626C54.1907 18.8626 52.8983 18.277 52.8983 16.199V11.004H51.6059V9.07709H52.8983V6.01673H55.9202V9.07709H57.688V11.004H55.9202V15.5378C55.9202 16.2934 56.3386 16.4823 57.0038 16.4823C57.2697 16.4823 57.5739 16.4634 57.688 16.4634V18.7115C57.4218 18.787 56.8327 18.8626 55.9963 18.8626ZM63.4602 19.0326C60.2482 19.0326 58.2715 16.8224 58.2715 13.8943C58.2715 11.004 60.3052 8.79371 63.2701 8.79371C64.6576 8.79371 65.7599 9.2471 66.5962 10.0027C67.7556 11.0606 68.3257 12.7419 68.3067 14.7066H61.3124C61.5026 16.0101 62.2248 16.8224 63.4983 16.8224C64.3153 16.8224 64.8477 16.4634 65.1136 15.8589H68.1356C67.9267 16.7279 67.3565 17.5591 66.5012 18.1448C65.6838 18.7115 64.6956 19.0326 63.4602 19.0326ZM61.3314 12.8742H65.1707C65.0566 11.7218 64.3343 10.9851 63.3271 10.9851C62.1488 10.9851 61.5406 11.7218 61.3314 12.8742ZM69.3438 18.7493V9.07709H72.309V10.4561H72.366C72.9742 9.45491 73.9053 8.79371 75.3119 8.79371C76.5853 8.79371 77.5544 9.45491 78.0488 10.4939H78.0869C78.8469 9.32267 79.8924 8.79371 81.1468 8.79371C83.3514 8.79371 84.454 10.2861 84.454 12.4586V18.7493H81.3557V13.0064C81.3557 11.9674 80.9186 11.3629 79.9875 11.3629C78.999 11.3629 78.4479 12.1752 78.4479 13.3275V18.7493H75.3499V13.0064C75.3499 11.9674 74.9128 11.3629 73.9814 11.3629C73.0122 11.3629 72.4418 12.1752 72.4418 13.3275V18.7493H69.3438ZM85.8629 18.7493V9.07709H88.9609V18.7493H85.8629ZM85.8629 7.73582V5.24219H88.9609V7.73582H85.8629ZM94.5909 19.0515C91.7398 19.0515 89.9533 17.748 89.8582 15.6134H92.7854C92.8991 16.5768 93.5454 17.0491 94.5719 17.0491C95.503 17.0491 96.0922 16.709 96.0922 16.0856C96.0922 15.2166 94.9139 15.1222 93.6214 14.8955C91.93 14.6121 90.1244 14.1588 90.1244 11.8918C90.1244 9.8516 92.025 8.79371 94.3247 8.79371C97.0807 8.79371 98.563 9.98384 98.7151 11.8918H95.8643C95.7502 11.0229 95.1611 10.7584 94.3057 10.7584C93.5454 10.7584 92.9562 11.0417 92.9562 11.6463C92.9562 12.3263 94.0588 12.4208 95.2942 12.6475C97.0046 12.9308 99.0193 13.3653 99.0193 15.84C99.0193 17.9559 97.1377 19.0515 94.5909 19.0515Z" fill="#070611"/>
</g>
<defs>
<clipPath id="clip0_11967_22703">
<rect width="99" height="24" fill="white" transform="translate(0.5)"/>
</clipPath>
</defs>
</svg>
