<svg width="80" height="80" viewBox="0 0 80 80" fill="none" xmlns="http://www.w3.org/2000/svg">
<rect width="80" height="80" rx="8" fill="url(#paint0_linear_6508_158256)"/>
<path d="M39.3327 14.8147V22.2221C39.3327 22.6722 38.9679 23.037 38.5179 23.037H31.1105C29.9241 23.037 28.9623 23.9987 28.9623 25.1851V32.8888C28.9623 34.0752 29.9241 35.037 31.1105 35.037H38.8142C40.0006 35.037 40.9623 34.0752 40.9623 32.8888V25.4814C40.9623 25.0314 41.3271 24.6666 41.7771 24.6666H49.1845C49.6345 24.6666 49.9993 25.0314 49.9993 25.4814V43.8518C49.9993 44.3018 49.6345 44.6666 49.1845 44.6666H30.8142C30.3642 44.6666 29.9993 44.3018 29.9993 43.8518V36.1481C29.9993 34.9617 29.0376 33.9999 27.8512 33.9999H20.1475C18.9611 33.9999 17.9993 34.9617 17.9993 36.1481V65.1851C17.9993 66.3715 18.9611 67.3333 20.1475 67.3333H27.8512C29.0376 67.3333 29.9993 66.3715 29.9993 65.1851V57.4814C29.9993 57.0314 30.3642 56.6666 30.8142 56.6666H49.1845C49.6345 56.6666 49.9993 57.0314 49.9993 57.4814V65.1851C49.9993 66.3715 50.9611 67.3333 52.1475 67.3333H59.8512C61.0376 67.3333 61.9993 66.3715 61.9993 65.1851V14.8147C61.9993 13.6283 61.0376 12.6666 59.8512 12.6666H41.4808C40.2944 12.6666 39.3327 13.6283 39.3327 14.8147Z" fill="url(#paint1_linear_6508_158256)" stroke="url(#paint2_linear_6508_158256)" stroke-width="1.33333"/>
<line opacity="0.2" x1="8.99935" y1="-1.45705e-08" x2="8.99935" y2="80" stroke="white" stroke-width="0.666667"/>
<line opacity="0.2" x1="71.6654" y1="-1.45705e-08" x2="71.6654" y2="80" stroke="white" stroke-width="0.666667"/>
<line opacity="0.2" x1="-2.91409e-08" y1="71.0004" x2="80" y2="71.0004" stroke="white" stroke-width="0.666667"/>
<line opacity="0.2" x1="-2.91409e-08" y1="8.33366" x2="80" y2="8.33365" stroke="white" stroke-width="0.666667"/>
<defs>
<linearGradient id="paint0_linear_6508_158256" x1="80" y1="-2.40405e-06" x2="39.6667" y2="56.6667" gradientUnits="userSpaceOnUse">
<stop stop-color="#9988FF"/>
<stop offset="1" stop-color="#684FF8"/>
</linearGradient>
<linearGradient id="paint1_linear_6508_158256" x1="39.9993" y1="13.3333" x2="39.9993" y2="66.6666" gradientUnits="userSpaceOnUse">
<stop stop-color="white"/>
<stop offset="1" stop-color="white" stop-opacity="0.8"/>
</linearGradient>
<linearGradient id="paint2_linear_6508_158256" x1="39.9993" y1="13.3333" x2="39.9993" y2="66.6666" gradientUnits="userSpaceOnUse">
<stop stop-color="#7C6BE3"/>
<stop offset="1" stop-color="#5B46D3"/>
</linearGradient>
</defs>
</svg>
