<svg width="112" height="18" viewBox="0 0 112 18" fill="none" xmlns="http://www.w3.org/2000/svg">
<g clip-path="url(#clip0_11946_19453)">
<path d="M14.4 1H1.6C0.716344 1 0 1.71634 0 2.6V15.4C0 16.2837 0.716344 17 1.6 17H14.4C15.2837 17 16 16.2837 16 15.4V2.6C16 1.71634 15.2837 1 14.4 1Z" fill="url(#paint0_linear_11946_19453)"/>
<path d="M7.86678 3.96282V5.4443C7.86678 5.53432 7.79382 5.60728 7.70382 5.60728H6.22234C5.98506 5.60728 5.7927 5.79962 5.7927 6.0369V7.57764C5.7927 7.81492 5.98506 8.00728 6.22234 8.00728H7.76308C8.00036 8.00728 8.1927 7.81492 8.1927 7.57764V6.09616C8.1927 6.00616 8.26566 5.9332 8.35566 5.9332H9.83714C9.92714 5.9332 10.0001 6.00616 10.0001 6.09616V9.77024C10.0001 9.86024 9.92714 9.9332 9.83714 9.9332H6.16308C6.07308 9.9332 6.0001 9.86024 6.0001 9.77024V8.2295C6.0001 7.99222 5.80776 7.79986 5.57048 7.79986H4.02974C3.79246 7.79986 3.6001 7.99222 3.6001 8.2295V14.0369C3.6001 14.2742 3.79246 14.4665 4.02974 14.4665H5.57048C5.80776 14.4665 6.0001 14.2742 6.0001 14.0369V12.4962C6.0001 12.4062 6.07308 12.3332 6.16308 12.3332H9.83714C9.92714 12.3332 10.0001 12.4062 10.0001 12.4962V14.0369C10.0001 14.2742 10.1925 14.4665 10.4297 14.4665H11.9705C12.2078 14.4665 12.4001 14.2742 12.4001 14.0369V3.96282C12.4001 3.72554 12.2078 3.5332 11.9705 3.5332H8.2964C8.05912 3.5332 7.86678 3.72554 7.86678 3.96282Z" fill="url(#paint1_linear_11946_19453)" stroke="url(#paint2_linear_11946_19453)" stroke-width="0.1"/>
<path opacity="0.2" d="M1.7998 1V17" stroke="white" stroke-width="0.3"/>
<path opacity="0.2" d="M14.333 1V17" stroke="white" stroke-width="0.3"/>
<path opacity="0.2" d="M0 15.2002H16" stroke="white" stroke-width="0.3"/>
<path opacity="0.2" d="M0 2.667L16 2.66699" stroke="white" stroke-width="0.3"/>
</g>
<path d="M23.855 14.24C22.735 14.24 21.84 14 21.17 13.52C20.51 13.03 20.16 12.36 20.12 11.51H22.43C22.52 12.27 22.99 12.65 23.84 12.65C24.21 12.65 24.5 12.585 24.71 12.455C24.93 12.315 25.04 12.125 25.04 11.885C25.04 11.805 25.03 11.735 25.01 11.675C24.99 11.615 24.955 11.56 24.905 11.51C24.855 11.46 24.805 11.415 24.755 11.375C24.715 11.335 24.65 11.3 24.56 11.27C24.47 11.23 24.39 11.2 24.32 11.18C24.26 11.16 24.165 11.14 24.035 11.12C23.915 11.09 23.82 11.07 23.75 11.06C23.68 11.04 23.57 11.02 23.42 11C23.27 10.97 23.16 10.95 23.09 10.94C22.77 10.89 22.5 10.84 22.28 10.79C22.06 10.73 21.815 10.64 21.545 10.52C21.285 10.4 21.07 10.265 20.9 10.115C20.74 9.955 20.605 9.745 20.495 9.485C20.385 9.215 20.33 8.905 20.33 8.555C20.33 7.775 20.645 7.17 21.275 6.74C21.905 6.31 22.695 6.095 23.645 6.095C24.715 6.095 25.545 6.315 26.135 6.755C26.725 7.185 27.05 7.785 27.11 8.555H24.86C24.78 7.955 24.37 7.655 23.63 7.655C23.31 7.655 23.05 7.715 22.85 7.835C22.66 7.955 22.565 8.13 22.565 8.36C22.565 8.42 22.575 8.475 22.595 8.525C22.615 8.575 22.645 8.62 22.685 8.66C22.735 8.7 22.78 8.735 22.82 8.765C22.87 8.795 22.935 8.825 23.015 8.855C23.095 8.885 23.165 8.91 23.225 8.93C23.295 8.95 23.385 8.97 23.495 8.99C23.615 9.01 23.71 9.03 23.78 9.05C23.86 9.06 23.965 9.08 24.095 9.11C24.225 9.13 24.33 9.145 24.41 9.155C24.75 9.215 25.03 9.27 25.25 9.32C25.47 9.37 25.725 9.46 26.015 9.59C26.315 9.71 26.55 9.855 26.72 10.025C26.89 10.185 27.035 10.41 27.155 10.7C27.285 10.98 27.35 11.31 27.35 11.69C27.35 12.51 27.025 13.14 26.375 13.58C25.735 14.02 24.895 14.24 23.855 14.24ZM30.9689 14.09C30.1889 14.09 29.5839 13.935 29.1539 13.625C28.7339 13.305 28.5239 12.755 28.5239 11.975V7.85H27.5039V6.32H28.5239V3.89H30.9089V6.32H32.3039V7.85H30.9089V11.45C30.9089 11.73 30.9789 11.925 31.1189 12.035C31.2689 12.145 31.4839 12.2 31.7639 12.2C31.8439 12.2 31.9489 12.2 32.0789 12.2C32.2089 12.19 32.2839 12.185 32.3039 12.185V13.97C32.0239 14.05 31.5789 14.09 30.9689 14.09ZM35.5941 14.195C34.8041 14.195 34.1691 13.99 33.6891 13.58C33.2091 13.17 32.9691 12.595 32.9691 11.855C32.9691 11.075 33.2291 10.51 33.7491 10.16C34.2691 9.8 34.9891 9.56 35.9091 9.44C36.6591 9.35 37.1691 9.25 37.4391 9.14C37.7191 9.02 37.8591 8.835 37.8591 8.585C37.8591 8.035 37.5091 7.76 36.8091 7.76C36.0591 7.76 35.6441 8.09 35.5641 8.75H33.3141C33.3441 7.99 33.6541 7.36 34.2441 6.86C34.8441 6.36 35.6941 6.11 36.7941 6.11C37.8941 6.11 38.7241 6.32 39.2841 6.74C39.9341 7.21 40.2591 7.94 40.2591 8.93V12.8C40.2591 13.41 40.3491 13.775 40.5291 13.895V14H38.1591C38.0591 13.86 37.9741 13.575 37.9041 13.145H37.8741C37.3841 13.845 36.6241 14.195 35.5941 14.195ZM36.3741 12.635C36.8341 12.635 37.2041 12.51 37.4841 12.26C37.7741 12 37.9191 11.665 37.9191 11.255V10.34C37.6791 10.46 37.2591 10.595 36.6591 10.745C36.1691 10.855 35.8241 10.985 35.6241 11.135C35.4241 11.285 35.3241 11.5 35.3241 11.78C35.3241 12.35 35.6741 12.635 36.3741 12.635ZM46.1394 14.24C45.0794 14.24 44.3044 13.835 43.8144 13.025H43.7844V14H41.4444V3.275H43.8894V7.19H43.9344C44.4644 6.46 45.1944 6.095 46.1244 6.095C47.1044 6.095 47.8944 6.48 48.4944 7.25C49.1044 8.02 49.4094 8.99 49.4094 10.16C49.4094 11.43 49.1144 12.43 48.5244 13.16C47.9344 13.88 47.1394 14.24 46.1394 14.24ZM45.4494 12.305C45.9194 12.305 46.2844 12.115 46.5444 11.735C46.8044 11.355 46.9344 10.825 46.9344 10.145C46.9344 9.475 46.8044 8.945 46.5444 8.555C46.2844 8.155 45.9094 7.955 45.4194 7.955C44.8994 7.955 44.4994 8.16 44.2194 8.57C43.9494 8.97 43.8144 9.5 43.8144 10.16C43.8144 10.8 43.9594 11.32 44.2494 11.72C44.5494 12.11 44.9494 12.305 45.4494 12.305ZM50.2484 14V3.275H52.7234V14H50.2484ZM57.6602 14.225C56.4202 14.225 55.4252 13.845 54.6752 13.085C53.9352 12.315 53.5652 11.335 53.5652 10.145C53.5652 8.985 53.9302 8.02 54.6602 7.25C55.4002 6.48 56.3502 6.095 57.5102 6.095C58.5602 6.095 59.4352 6.415 60.1352 7.055C61.0552 7.895 61.5052 9.14 61.4852 10.79H55.9652C56.0452 11.32 56.2302 11.735 56.5202 12.035C56.8102 12.325 57.2002 12.47 57.6902 12.47C58.3202 12.47 58.7452 12.215 58.9652 11.705H61.3502C61.1702 12.445 60.7402 13.05 60.0602 13.52C59.3902 13.99 58.5902 14.225 57.6602 14.225ZM55.9802 9.335H59.0102C58.9702 8.875 58.8152 8.51 58.5452 8.24C58.2852 7.97 57.9552 7.835 57.5552 7.835C56.6852 7.835 56.1602 8.335 55.9802 9.335ZM66.0388 14.24C64.8188 14.24 63.8338 13.855 63.0838 13.085C62.3338 12.315 61.9588 11.345 61.9588 10.175C61.9588 9.005 62.3288 8.035 63.0688 7.265C63.8088 6.495 64.7788 6.11 65.9788 6.11C66.9988 6.11 67.8338 6.38 68.4838 6.92C69.1338 7.46 69.5138 8.17 69.6238 9.05H67.2688C67.0988 8.29 66.6788 7.91 66.0088 7.91C65.4888 7.91 65.0938 8.11 64.8238 8.51C64.5638 8.91 64.4338 9.465 64.4338 10.175C64.4338 10.875 64.5688 11.425 64.8388 11.825C65.1088 12.215 65.4988 12.41 66.0088 12.41C66.7888 12.41 67.2338 11.97 67.3438 11.09H69.6838C69.6538 12 69.3038 12.755 68.6338 13.355C67.9738 13.945 67.1088 14.24 66.0388 14.24ZM73.0129 11.87C73.2929 12.29 73.6929 12.5 74.2129 12.5C74.7329 12.5 75.1329 12.29 75.4129 11.87C75.7029 11.45 75.8479 10.885 75.8479 10.175C75.8479 9.465 75.7029 8.9 75.4129 8.48C75.1329 8.05 74.7329 7.835 74.2129 7.835C73.6929 7.835 73.2929 8.045 73.0129 8.465C72.7329 8.885 72.5929 9.455 72.5929 10.175C72.5929 10.885 72.7329 11.45 73.0129 11.87ZM77.1829 13.085C76.4329 13.855 75.4479 14.24 74.2279 14.24C73.0079 14.24 72.0179 13.855 71.2579 13.085C70.4979 12.315 70.1179 11.345 70.1179 10.175C70.1179 9.005 70.4979 8.035 71.2579 7.265C72.0179 6.495 73.0079 6.11 74.2279 6.11C75.4479 6.11 76.4329 6.495 77.1829 7.265C77.9429 8.035 78.3229 9.005 78.3229 10.175C78.3229 11.345 77.9429 12.315 77.1829 13.085ZM79.1495 14V6.32H81.5945V14H79.1495ZM79.1495 5.255V3.275H81.5945V5.255H79.1495ZM82.7676 14V6.32H85.1226V7.37H85.1676C85.7576 6.52 86.5476 6.095 87.5376 6.095C88.3676 6.095 89.0176 6.365 89.4876 6.905C89.9676 7.435 90.2076 8.135 90.2076 9.005V14H87.7626V9.5C87.7626 9.08 87.6576 8.75 87.4476 8.51C87.2476 8.26 86.9526 8.135 86.5626 8.135C86.1626 8.135 85.8376 8.285 85.5876 8.585C85.3376 8.885 85.2126 9.275 85.2126 9.755V14H82.7676ZM91.2173 14V11.48H93.7823V14H91.2173ZM95.2029 14V7.88H94.2129V6.32H95.2029V5.765C95.2029 4.995 95.4129 4.4 95.8329 3.98C96.4429 3.38 97.5279 3.16 99.0879 3.32V5.045C98.5679 5.025 98.1979 5.07 97.9779 5.18C97.7579 5.29 97.6479 5.545 97.6479 5.945V6.32H99.0879V7.88H97.6479V14H95.2029ZM100.41 16.535V14.63H101.25C101.92 14.63 102.255 14.36 102.255 13.82C102.255 13.56 102.1 13.03 101.79 12.23L99.5253 6.32H102.105L103.14 9.59L103.62 11.36H103.65C103.79 10.68 103.94 10.09 104.1 9.59L105.105 6.32H107.55L104.895 14.105C104.585 15.005 104.215 15.635 103.785 15.995C103.365 16.355 102.77 16.535 102 16.535H100.41ZM108.095 14V6.32H110.54V14H108.095ZM108.095 5.255V3.275H110.54V5.255H108.095Z" fill="#313535"/>
<defs>
<linearGradient id="paint0_linear_11946_19453" x1="16" y1="1" x2="7.93334" y2="12.3333" gradientUnits="userSpaceOnUse">
<stop stop-color="#9988FF"/>
<stop offset="1" stop-color="#684FF8"/>
</linearGradient>
<linearGradient id="paint1_linear_11946_19453" x1="8.0001" y1="3.66654" x2="8.0001" y2="14.3332" gradientUnits="userSpaceOnUse">
<stop stop-color="white"/>
<stop offset="1" stop-color="white" stop-opacity="0.8"/>
</linearGradient>
<linearGradient id="paint2_linear_11946_19453" x1="8.0001" y1="3.66654" x2="8.0001" y2="14.3332" gradientUnits="userSpaceOnUse">
<stop stop-color="#7C6BE3"/>
<stop offset="1" stop-color="#5B46D3"/>
</linearGradient>
<clipPath id="clip0_11946_19453">
<rect width="16" height="16" fill="white" transform="translate(0 1)"/>
</clipPath>
</defs>
</svg>
