<svg xmlns="http://www.w3.org/2000/svg" width="82" height="20" viewBox="0 0 82 20" fill="none">
  <g clip-path="url(#clip0_11774_78969)">
    <path d="M18 0H2C0.89543 0 0 0.89543 0 2V18C0 19.1046 0.89543 20 2 20H18C19.1046 20 20 19.1046 20 18V2C20 0.89543 19.1046 0 18 0Z" fill="url(#paint0_linear_11774_78969)"/>
    <path d="M9.83323 3.70365V5.5555C9.83323 5.66803 9.74203 5.75923 9.62953 5.75923H7.77768C7.48108 5.75923 7.24063 5.99965 7.24063 6.29625V8.22218C7.24063 8.51878 7.48108 8.75923 7.77768 8.75923H9.7036C10.0002 8.75923 10.2406 8.51878 10.2406 8.22218V6.37033C10.2406 6.25783 10.3318 6.16663 10.4443 6.16663H12.2962C12.4087 6.16663 12.4999 6.25783 12.4999 6.37033V10.9629C12.4999 11.0754 12.4087 11.1666 12.2962 11.1666H7.7036C7.5911 11.1666 7.49988 11.0754 7.49988 10.9629V9.037C7.49988 8.7404 7.25945 8.49995 6.96285 8.49995H5.03693C4.74033 8.49995 4.49988 8.7404 4.49988 9.037V16.2963C4.49988 16.5929 4.74033 16.8333 5.03693 16.8333H6.96285C7.25945 16.8333 7.49988 16.5929 7.49988 16.2963V14.3703C7.49988 14.2578 7.5911 14.1666 7.7036 14.1666H12.2962C12.4087 14.1666 12.4999 14.2578 12.4999 14.3703V16.2963C12.4999 16.5929 12.7403 16.8333 13.0369 16.8333H14.9629C15.2595 16.8333 15.4999 16.5929 15.4999 16.2963V3.70365C15.4999 3.40705 15.2595 3.16663 14.9629 3.16663H10.3703C10.0737 3.16663 9.83323 3.40705 9.83323 3.70365Z" fill="url(#paint1_linear_11774_78969)" stroke="url(#paint2_linear_11774_78969)" stroke-width="0.25"/>
    <path opacity="0.2" d="M2.24988 0V20" stroke="white" stroke-width="0.666667"/>
    <path opacity="0.2" d="M17.9164 0V20" stroke="white" stroke-width="0.666667"/>
    <path opacity="0.2" d="M0 17.7501H20" stroke="white" stroke-width="0.666667"/>
    <path opacity="0.2" d="M0 2.08338L20 2.08337" stroke="white" stroke-width="0.666667"/>
    <path d="M24.9843 15.625L29.03 4.36914H31.8953L35.9568 15.625H33.0288L32.3675 13.5943H28.4318L27.7865 15.625H24.9843ZM29.0773 11.595H31.722L30.872 8.87152C30.683 8.28904 30.4313 7.28152 30.4313 7.28152H30.3998C30.3998 7.28152 30.132 8.28904 29.9433 8.87152L29.0773 11.595ZM36.5908 15.625V7.56489H39.0465V8.82429H39.0938C39.6605 7.86399 40.3218 7.43894 41.2978 7.43894C41.5338 7.43894 41.6913 7.45469 41.8015 7.50192V9.70587H41.7385C40.1643 9.48547 39.1568 10.2568 39.1568 12.0043V15.625H36.5908ZM45.9665 15.7195C44.471 15.7195 43.4005 15.2315 43.4005 13.4998V9.17062H42.33V7.56489H43.4005V5.01459H45.9035V7.56489H47.3678V9.17062H45.9035V12.9488C45.9035 13.5785 46.25 13.7359 46.801 13.7359C47.0213 13.7359 47.2733 13.7202 47.3678 13.7202V15.5936C47.1473 15.6565 46.6593 15.7195 45.9665 15.7195ZM52.1488 15.8612C49.4883 15.8612 47.851 14.0193 47.851 11.5792C47.851 9.17062 49.5355 7.32874 51.9913 7.32874C53.1405 7.32874 54.0535 7.70657 54.7463 8.33627C55.7065 9.21784 56.1788 10.6189 56.163 12.2561H50.3698C50.5273 13.3424 51.1255 14.0193 52.1803 14.0193C52.857 14.0193 53.298 13.7202 53.5183 13.2164H56.0213C55.8483 13.9406 55.376 14.6333 54.6675 15.1213C53.9905 15.5936 53.172 15.8612 52.1488 15.8612ZM50.3855 10.7291H53.5655C53.471 9.76884 52.8728 9.15487 52.0385 9.15487C51.0625 9.15487 50.5588 9.76884 50.3855 10.7291ZM57.022 15.625V7.56489H59.478V8.71409H59.5253C60.029 7.87974 60.8003 7.32874 61.9653 7.32874C63.02 7.32874 63.8228 7.87974 64.2323 8.74557H64.2638C64.8933 7.76954 65.7593 7.32874 66.7983 7.32874C68.6243 7.32874 69.5375 8.57239 69.5375 10.3828V15.625H66.9713V10.8393C66.9713 9.97349 66.6093 9.46972 65.838 9.46972C65.0193 9.46972 64.5628 10.1466 64.5628 11.1069V15.625H61.9968V10.8393C61.9968 9.97349 61.6348 9.46972 60.8633 9.46972C60.0605 9.46972 59.588 10.1466 59.588 11.1069V15.625H57.022ZM70.7045 15.625V7.56489H73.2705V15.625H70.7045ZM70.7045 6.44717V4.36914H73.2705V6.44717H70.7045ZM77.9338 15.8769C75.5723 15.8769 74.0925 14.7907 74.0138 13.0118H76.4383C76.5325 13.8146 77.0678 14.2082 77.918 14.2082C78.6893 14.2082 79.1773 13.9248 79.1773 13.4053C79.1773 12.6812 78.2013 12.6025 77.1308 12.4136C75.7298 12.1774 74.2343 11.7996 74.2343 9.91052C74.2343 8.21032 75.8085 7.32874 77.7133 7.32874C79.996 7.32874 81.2238 8.32052 81.3498 9.91052H78.9885C78.894 9.18637 78.406 8.96597 77.6975 8.96597C77.0678 8.96597 76.5798 9.20209 76.5798 9.70587C76.5798 10.2726 77.493 10.3513 78.5163 10.5402C79.933 10.7763 81.6018 11.1384 81.6018 13.2007C81.6018 14.9639 80.0433 15.8769 77.9338 15.8769Z" fill="#F9FAFB"/>
  </g>
  <defs>
    <linearGradient id="paint0_linear_11774_78969" x1="20" y1="0" x2="9.91668" y2="14.1667" gradientUnits="userSpaceOnUse">
      <stop stop-color="#9988FF"/>
      <stop offset="1" stop-color="#684FF8"/>
    </linearGradient>
    <linearGradient id="paint1_linear_11774_78969" x1="9.99988" y1="3.3333" x2="9.99988" y2="16.6666" gradientUnits="userSpaceOnUse">
      <stop stop-color="white"/>
      <stop offset="1" stop-color="white" stop-opacity="0.8"/>
    </linearGradient>
    <linearGradient id="paint2_linear_11774_78969" x1="9.99988" y1="3.3333" x2="9.99988" y2="16.6666" gradientUnits="userSpaceOnUse">
      <stop stop-color="#7C6BE3"/>
      <stop offset="1" stop-color="#5B46D3"/>
    </linearGradient>
    <clipPath id="clip0_11774_78969">
      <rect width="82" height="20" fill="white"/>
    </clipPath>
  </defs>
</svg>