<svg width="328" height="80" viewBox="0 0 328 80" fill="none" xmlns="http://www.w3.org/2000/svg">
<g clip-path="url(#clip0_6508_46865)">
<path d="M72 0H8C3.58172 0 0 3.58172 0 8V72C0 76.4183 3.58172 80 8 80H72C76.4183 80 80 76.4183 80 72V8C80 3.58172 76.4183 0 72 0Z" fill="black"/>
<path d="M41.4808 13.3335C40.6626 13.3335 39.9993 13.9968 39.9993 14.815V22.2224C39.9993 23.0406 39.3361 23.7039 38.5179 23.7039H31.1105C30.2923 23.7039 29.629 24.3671 29.629 25.1853V32.8891C29.629 33.7073 30.2923 34.3705 31.1105 34.3705H38.8142C39.6324 34.3705 40.2956 33.7073 40.2956 32.8891V25.4816C40.2956 24.6634 40.9589 24.0002 41.7771 24.0002H49.1845C50.0027 24.0002 50.666 24.6634 50.666 25.4816V43.852C50.666 44.6702 50.0027 45.3335 49.1845 45.3335H30.8142C29.996 45.3335 29.3327 44.6702 29.3327 43.852V36.1483C29.3327 35.3301 28.6694 34.6668 27.8512 34.6668H20.1475C19.3293 34.6668 18.666 35.3301 18.666 36.1483V65.1853C18.666 66.0035 19.3293 66.6668 20.1475 66.6668H27.8512C28.6694 66.6668 29.3327 66.0035 29.3327 65.1853V57.4816C29.3327 56.6634 29.996 56.0002 30.8142 56.0002H49.1845C50.0027 56.0002 50.666 56.6634 50.666 57.4816V65.1853C50.666 66.0035 51.3293 66.6668 52.1475 66.6668H59.8512C60.6694 66.6668 61.3327 66.0035 61.3327 65.1853V14.815C61.3327 13.9968 60.6694 13.3335 59.8512 13.3335H41.4808Z" fill="white"/>
<path opacity="0.2" d="M8.99933 0V80" stroke="#FBFBFB" stroke-opacity="0.2" stroke-width="0.666667"/>
<path opacity="0.2" d="M71.6654 0V80" stroke="#FBFBFB" stroke-opacity="0.2" stroke-width="0.666667"/>
<path opacity="0.2" d="M0 71.0002H80" stroke="#FBFBFB" stroke-opacity="0.2" stroke-width="0.666667"/>
<path opacity="0.2" d="M0 8.33366L80 8.33365" stroke="#FBFBFB" stroke-opacity="0.2" stroke-width="0.666667"/>
<path d="M99.937 62.5L116.12 17.4764H127.581L143.827 62.5H132.115L129.47 54.3769H113.727L111.146 62.5H99.937ZM116.309 46.3797H126.888L123.488 35.4859L121.725 29.1259H121.599C120.885 31.8126 120.276 33.9326 119.773 35.4859L116.309 46.3797ZM146.363 62.5V30.2594H156.186V35.297H156.375C158.558 31.6027 161.496 29.7556 165.191 29.7556C166.156 29.7556 166.828 29.8396 167.206 30.0075V38.8233H166.954C163.763 38.3615 161.245 38.9282 159.397 40.5235C157.55 42.0767 156.627 44.5745 156.627 48.0169V62.5H146.363ZM183.866 62.8778C180.592 62.8778 178.052 62.2271 176.247 60.9257C174.484 59.5824 173.602 57.2735 173.602 53.999V36.6823H169.32V30.2594H173.602V20.0582H183.614V30.2594H189.471V36.6823H183.614V51.7951C183.614 52.9705 183.908 53.7891 184.496 54.2509C185.126 54.7127 186.028 54.9436 187.204 54.9436C187.539 54.9436 187.98 54.9436 188.526 54.9436C189.072 54.9016 189.387 54.8806 189.471 54.8806V62.3741C188.295 62.7099 186.427 62.8778 183.866 62.8778ZM208.595 63.4446C203.389 63.4446 199.212 61.8493 196.064 58.6588C192.957 55.4264 191.404 51.3123 191.404 46.3167C191.404 41.447 192.936 37.396 196.001 34.1635C199.107 30.931 203.095 29.3148 207.965 29.3148C212.373 29.3148 216.046 30.6582 218.985 33.3449C222.847 36.8712 224.736 42.0977 224.652 49.0244H201.479C201.815 51.2494 202.592 52.9915 203.809 54.2509C205.026 55.4683 206.664 56.0771 208.721 56.0771C211.365 56.0771 213.15 55.0066 214.073 52.8656H224.085C223.33 55.9721 221.525 58.5119 218.67 60.485C215.857 62.458 212.499 63.4446 208.595 63.4446ZM201.542 42.9163H214.262C214.094 40.9852 213.443 39.453 212.31 38.3195C211.218 37.1861 209.833 36.6193 208.154 36.6193C204.502 36.6193 202.298 38.7183 201.542 42.9163ZM228.088 62.5V30.2594H237.912V34.8562H238.101C240.326 31.1619 243.579 29.3148 247.861 29.3148C252.101 29.3148 255.123 31.2039 256.929 34.9821H257.055C259.489 31.2039 262.869 29.3148 267.193 29.3148C270.761 29.3148 273.469 30.4273 275.316 32.6522C277.205 34.8352 278.15 37.7948 278.15 41.531V62.5H267.885V43.3571C267.885 39.7049 266.374 37.8787 263.352 37.8787C261.756 37.8787 260.497 38.4874 259.573 39.7049C258.692 40.8803 258.251 42.4545 258.251 44.4276V62.5H247.987V43.3571C247.987 39.7049 246.476 37.8787 243.453 37.8787C241.858 37.8787 240.598 38.4874 239.675 39.7049C238.793 40.8803 238.352 42.4545 238.352 44.4276V62.5H228.088ZM282.818 62.5V30.2594H293.082V62.5H282.818ZM282.818 25.7885V17.4764H293.082V25.7885H282.818ZM311.735 63.5075C307.033 63.5075 303.276 62.5 300.463 60.485C297.692 58.4279 296.223 55.6153 296.055 52.047H305.753C306.13 55.2375 308.103 56.8327 311.672 56.8327C313.225 56.8327 314.442 56.5598 315.324 56.0141C316.248 55.4264 316.709 54.6287 316.709 53.6212C316.709 53.2854 316.667 52.9915 316.583 52.7396C316.499 52.4878 316.352 52.2569 316.143 52.047C315.933 51.8371 315.723 51.6482 315.513 51.4802C315.345 51.3123 315.072 51.1654 314.694 51.0395C314.316 50.8715 313.981 50.7456 313.687 50.6616C313.435 50.5777 313.036 50.4937 312.49 50.4098C311.987 50.2838 311.588 50.1999 311.294 50.1579C311 50.0739 310.538 49.99 309.909 49.906C309.279 49.7801 308.817 49.6961 308.523 49.6541C307.18 49.4442 306.046 49.2343 305.123 49.0244C304.199 48.7725 303.171 48.3947 302.037 47.891C300.946 47.3872 300.043 46.8205 299.33 46.1908C298.658 45.5191 298.091 44.6375 297.629 43.546C297.168 42.4126 296.937 41.1112 296.937 39.6419C296.937 36.3674 298.259 33.8277 300.904 32.0225C303.549 30.2174 306.865 29.3148 310.853 29.3148C315.345 29.3148 318.829 30.2384 321.306 32.0855C323.783 33.8906 325.147 36.4094 325.399 39.6419H315.954C315.618 37.1231 313.897 35.8637 310.79 35.8637C309.447 35.8637 308.355 36.1156 307.516 36.6193C306.718 37.1231 306.319 37.8577 306.319 38.8233C306.319 39.0752 306.361 39.306 306.445 39.5159C306.529 39.7258 306.655 39.9148 306.823 40.0827C307.033 40.2506 307.222 40.3975 307.39 40.5235C307.6 40.6494 307.873 40.7753 308.208 40.9013C308.544 41.0272 308.838 41.1322 309.09 41.2161C309.384 41.3001 309.762 41.3841 310.223 41.468C310.727 41.552 311.126 41.6359 311.42 41.7199C311.756 41.7619 312.196 41.8458 312.742 41.9718C313.288 42.0557 313.729 42.1187 314.065 42.1607C315.492 42.4126 316.667 42.6435 317.591 42.8534C318.514 43.0633 319.585 43.4411 320.802 43.9868C322.062 44.4906 323.048 45.0993 323.762 45.8129C324.476 46.4846 325.084 47.4292 325.588 48.6466C326.134 49.822 326.407 51.2074 326.407 52.8026C326.407 56.245 325.042 58.8897 322.314 60.7368C319.627 62.584 316.101 63.5075 311.735 63.5075Z" fill="black"/>
</g>
<defs>
<clipPath id="clip0_6508_46865">
<rect width="328" height="80" fill="white"/>
</clipPath>
</defs>
</svg>
