<svg width="506" height="65" viewBox="0 0 506 65" fill="none" xmlns="http://www.w3.org/2000/svg">
<path d="M80 32.3642C80 53.8534 63.8144 60.7488 55.2864 54.609C48.2669 49.6027 46.1784 39.0235 35.62 37.9372C22.219 36.5676 21.0587 51.067 12.2408 51.067C1.97244 51.067 0 38.929 0 32.6948C0 26.3188 2.20449 17.6286 10.9644 17.6286C21.1748 17.6286 21.7549 30.0499 34.5178 29.3887C47.2226 28.6803 47.4547 15.7394 55.6928 10.2136C62.8861 5.44343 80 10.5914 80 32.3642Z" fill="#00D4AA"/>
<path d="M112.54 45L108.1 23.76H112.62L117.08 43.24L116.06 43.28L118.84 23.76H125.24L121 45H112.54ZM97.78 45L93.54 23.76H99.94L102.72 43.28L101.72 43.24L106.14 23.76H110.66L106.26 45H97.78ZM143.153 45V37.44C143.153 37.1733 143.153 36.8067 143.153 36.34C143.153 35.8733 143.153 35.4 143.153 34.92C143.153 34.44 143.153 34.0533 143.153 33.76C143.153 32.1333 142.86 30.88 142.273 30C141.687 29.1067 140.613 28.66 139.053 28.66C138.04 28.66 137.187 28.8667 136.493 29.28C135.8 29.68 135.273 30.2467 134.913 30.98C134.567 31.7133 134.393 32.5733 134.393 33.56L132.593 32.32C132.593 30.5467 132.973 28.9933 133.733 27.66C134.493 26.3133 135.54 25.26 136.873 24.5C138.22 23.74 139.773 23.36 141.533 23.36C144.133 23.36 146.087 24.1267 147.393 25.66C148.7 27.18 149.353 29.3 149.353 32.02C149.353 32.7133 149.353 33.5467 149.353 34.52C149.353 35.4933 149.353 36.62 149.353 37.9V45H143.153ZM128.193 45V13.74H134.393V45H128.193ZM155.071 54.18C154.404 54.18 153.804 54.1533 153.271 54.1C152.751 54.06 152.424 54.0133 152.291 53.96V49.26C152.464 49.34 152.764 49.4 153.191 49.44C153.631 49.4933 154.097 49.52 154.591 49.52C155.244 49.52 155.831 49.3867 156.351 49.12C156.884 48.8667 157.337 48.5 157.711 48.02C158.097 47.5533 158.397 47 158.611 46.36L158.971 45.28L151.651 23.76H158.111L162.731 41.18H162.011L166.451 23.76H172.831L165.531 46.06C164.984 47.74 164.311 49.1867 163.511 50.4C162.711 51.6133 161.644 52.5467 160.311 53.2C158.977 53.8533 157.231 54.18 155.071 54.18ZM198.912 15.5V45H192.692V30.84L195.492 32.72H179.212L182.012 30.92V45H175.792V15.5H182.012V29.76L179.212 27.9H195.492L192.692 29.76V15.5H198.912ZM205.539 54.18C204.873 54.18 204.273 54.1533 203.739 54.1C203.219 54.06 202.893 54.0133 202.759 53.96V49.26C202.933 49.34 203.233 49.4 203.659 49.44C204.099 49.4933 204.566 49.52 205.059 49.52C205.713 49.52 206.299 49.3867 206.819 49.12C207.353 48.8667 207.806 48.5 208.179 48.02C208.566 47.5533 208.866 47 209.079 46.36L209.439 45.28L202.119 23.76H208.579L213.199 41.18H212.479L216.919 23.76H223.299L215.999 46.06C215.453 47.74 214.779 49.1867 213.979 50.4C213.179 51.6133 212.113 52.5467 210.779 53.2C209.446 53.8533 207.699 54.18 205.539 54.18ZM226.24 53.74V23.76H232.46V53.74H226.24ZM239.02 45.48C237.34 45.48 235.8 45.0333 234.4 44.14C233 43.2333 231.88 42.02 231.04 40.5C230.2 38.9667 229.78 37.2467 229.78 35.34C229.78 35.2867 229.78 35.24 229.78 35.2C229.78 35.1467 229.78 35.0867 229.78 35.02L232.46 34.96C232.46 35 232.46 35.04 232.46 35.08C232.46 35.12 232.46 35.16 232.46 35.2C232.46 36.1867 232.7 37.0533 233.18 37.8C233.66 38.5333 234.28 39.1 235.04 39.5C235.8 39.9 236.594 40.1 237.42 40.1C238.78 40.1 239.96 39.6333 240.96 38.7C241.974 37.7533 242.48 36.28 242.48 34.28C242.48 32.28 241.98 30.8267 240.98 29.92C239.98 29 238.794 28.54 237.42 28.54C236.594 28.54 235.8 28.74 235.04 29.14C234.28 29.5267 233.66 30.08 233.18 30.8C232.7 31.52 232.46 32.38 232.46 33.38L229.78 33.22C229.78 31.3 230.2 29.6067 231.04 28.14C231.88 26.66 233 25.4933 234.4 24.64C235.8 23.7867 237.34 23.36 239.02 23.36C240.74 23.36 242.347 23.7867 243.84 24.64C245.334 25.48 246.54 26.7133 247.46 28.34C248.394 29.9667 248.86 31.9467 248.86 34.28C248.86 36.72 248.407 38.7733 247.5 40.44C246.594 42.1067 245.394 43.3667 243.9 44.22C242.407 45.06 240.78 45.48 239.02 45.48ZM255.105 36.24V32.14H269.185L268.585 33.18C268.585 33.0733 268.585 32.9733 268.585 32.88C268.585 32.7733 268.585 32.6733 268.585 32.58C268.585 31.82 268.405 31.0933 268.045 30.4C267.685 29.6933 267.125 29.12 266.365 28.68C265.618 28.2267 264.658 28 263.485 28C262.311 28 261.298 28.2533 260.445 28.76C259.605 29.2533 258.958 29.9667 258.505 30.9C258.065 31.8333 257.845 32.96 257.845 34.28C257.845 35.64 258.058 36.8067 258.485 37.78C258.925 38.74 259.571 39.48 260.425 40C261.291 40.52 262.365 40.78 263.645 40.78C264.471 40.78 265.185 40.7067 265.785 40.56C266.385 40.4 266.871 40.2 267.245 39.96C267.631 39.72 267.925 39.4533 268.125 39.16C268.325 38.8667 268.445 38.58 268.485 38.3H274.605C274.525 39.1933 274.218 40.0733 273.685 40.94C273.151 41.7933 272.411 42.5667 271.465 43.26C270.518 43.94 269.365 44.48 268.005 44.88C266.658 45.28 265.118 45.48 263.385 45.48C261.038 45.48 258.991 45.0133 257.245 44.08C255.498 43.1333 254.145 41.8333 253.185 40.18C252.225 38.5133 251.745 36.5933 251.745 34.42C251.745 32.22 252.231 30.2933 253.205 28.64C254.191 26.9733 255.558 25.68 257.305 24.76C259.065 23.8267 261.098 23.36 263.405 23.36C265.765 23.36 267.805 23.8333 269.525 24.78C271.245 25.7133 272.571 27.0267 273.505 28.72C274.438 30.4 274.905 32.36 274.905 34.6C274.905 34.9333 274.898 35.2533 274.885 35.56C274.871 35.8667 274.851 36.0933 274.825 36.24H255.105ZM278.779 45V23.76H284.999V31.08L283.719 30.28C283.866 29.28 284.133 28.36 284.519 27.52C284.906 26.68 285.406 25.9533 286.019 25.34C286.633 24.7133 287.359 24.2267 288.199 23.88C289.053 23.5333 290.026 23.36 291.119 23.36C291.973 23.36 292.639 23.4267 293.119 23.56C293.613 23.68 293.919 23.7733 294.039 23.84L293.019 29.4C292.899 29.3333 292.633 29.2267 292.219 29.08C291.806 28.9333 291.273 28.86 290.619 28.86C289.553 28.86 288.659 29.04 287.939 29.4C287.219 29.76 286.639 30.24 286.199 30.84C285.773 31.4267 285.466 32.08 285.279 32.8C285.093 33.52 284.999 34.2467 284.999 34.98V45H278.779ZM303.598 13.74V45H297.478V13.74H303.598ZM308.305 45V23.76H314.445V45H308.305ZM311.365 20.3C310.405 20.3 309.565 20.0467 308.845 19.54C308.138 19.0333 307.785 18.32 307.785 17.4C307.785 16.4667 308.138 15.7467 308.845 15.24C309.565 14.7333 310.405 14.48 311.365 14.48C312.338 14.48 313.178 14.7333 313.885 15.24C314.605 15.7467 314.965 16.4667 314.965 17.4C314.965 18.3333 314.605 19.0533 313.885 19.56C313.178 20.0533 312.338 20.3 311.365 20.3ZM327.894 45.48C326.12 45.48 324.487 45.06 322.994 44.22C321.5 43.3667 320.3 42.1067 319.394 40.44C318.487 38.7733 318.034 36.72 318.034 34.28C318.034 31.9467 318.494 29.9667 319.414 28.34C320.347 26.7133 321.56 25.48 323.054 24.64C324.56 23.7867 326.174 23.36 327.894 23.36C329.574 23.36 331.107 23.7867 332.494 24.64C333.894 25.4933 335.014 26.66 335.854 28.14C336.694 29.6067 337.114 31.3 337.114 33.22C337.114 33.2867 337.114 33.3533 337.114 33.42C337.114 33.4733 337.114 33.5333 337.114 33.6L334.434 33.64C334.434 33.6 334.434 33.56 334.434 33.52C334.434 33.4667 334.434 33.42 334.434 33.38C334.434 32.38 334.194 31.52 333.714 30.8C333.234 30.08 332.614 29.5267 331.854 29.14C331.094 28.74 330.3 28.54 329.474 28.54C328.1 28.54 326.914 29 325.914 29.92C324.914 30.8267 324.414 32.28 324.414 34.28C324.414 36.28 324.914 37.7533 325.914 38.7C326.927 39.6333 328.114 40.1 329.474 40.1C330.327 40.1 331.134 39.9 331.894 39.5C332.654 39.0867 333.267 38.5067 333.734 37.76C334.2 37.0133 334.434 36.1333 334.434 35.12L337.114 35.26C337.114 37.1667 336.7 38.8933 335.874 40.44C335.06 41.9733 333.954 43.2 332.554 44.12C331.167 45.0267 329.614 45.48 327.894 45.48ZM334.434 53.74V23.76H340.654V53.74H334.434ZM352.921 45.4C351.414 45.4 350.174 45.16 349.201 44.68C348.228 44.1867 347.461 43.5267 346.901 42.7C346.341 41.8733 345.948 40.9533 345.721 39.94C345.494 38.9267 345.381 37.9 345.381 36.86C345.381 36.38 345.381 35.8733 345.381 35.34C345.381 34.8067 345.381 34.26 345.381 33.7V23.76H351.581V32.72C351.581 33.1733 351.581 33.6133 351.581 34.04C351.581 34.4667 351.581 34.86 351.581 35.22C351.581 36.1133 351.681 36.9333 351.881 37.68C352.081 38.4267 352.448 39.0267 352.981 39.48C353.528 39.9333 354.301 40.16 355.301 40.16C356.274 40.16 357.101 39.8867 357.781 39.34C358.461 38.78 358.981 38.0667 359.341 37.2C359.701 36.3333 359.881 35.44 359.881 34.52L361.621 35.94C361.621 37.2733 361.414 38.5133 361.001 39.66C360.601 40.8067 360.028 41.8133 359.281 42.68C358.534 43.5333 357.621 44.2 356.541 44.68C355.474 45.16 354.268 45.4 352.921 45.4ZM359.881 45V23.76H366.081V45H359.881ZM370.493 45V23.76H376.633V45H370.493ZM373.553 20.3C372.593 20.3 371.753 20.0467 371.033 19.54C370.326 19.0333 369.973 18.32 369.973 17.4C369.973 16.4667 370.326 15.7467 371.033 15.24C371.753 14.7333 372.593 14.48 373.553 14.48C374.526 14.48 375.366 14.7333 376.073 15.24C376.793 15.7467 377.153 16.4667 377.153 17.4C377.153 18.3333 376.793 19.0533 376.073 19.56C375.366 20.0533 374.526 20.3 373.553 20.3ZM390.081 45.48C388.308 45.48 386.675 45.06 385.181 44.22C383.688 43.3667 382.488 42.1067 381.581 40.44C380.675 38.7733 380.221 36.72 380.221 34.28C380.221 31.9467 380.681 29.9667 381.601 28.34C382.535 26.7133 383.748 25.48 385.241 24.64C386.748 23.7867 388.361 23.36 390.081 23.36C391.761 23.36 393.295 23.7867 394.681 24.64C396.081 25.4933 397.201 26.66 398.041 28.14C398.881 29.6067 399.301 31.3 399.301 33.22C399.301 33.2867 399.301 33.3533 399.301 33.42C399.301 33.4733 399.301 33.5333 399.301 33.6L396.621 33.64C396.621 33.6 396.621 33.56 396.621 33.52C396.621 33.4667 396.621 33.42 396.621 33.38C396.621 32.38 396.381 31.52 395.901 30.8C395.421 30.08 394.801 29.5267 394.041 29.14C393.281 28.74 392.488 28.54 391.661 28.54C390.288 28.54 389.101 29 388.101 29.92C387.101 30.8267 386.601 32.28 386.601 34.28C386.601 36.28 387.101 37.7533 388.101 38.7C389.115 39.6333 390.301 40.1 391.661 40.1C392.515 40.1 393.321 39.9 394.081 39.5C394.841 39.0867 395.455 38.5067 395.921 37.76C396.388 37.0133 396.621 36.1333 396.621 35.12L399.301 35.26C399.301 37.1667 398.888 38.8933 398.061 40.44C397.248 41.9733 396.141 43.2 394.741 44.12C393.355 45.0267 391.801 45.48 390.081 45.48ZM396.621 45V13.74H402.841V45H396.621ZM410.988 45.6C410.068 45.6 409.288 45.28 408.648 44.64C408.008 44 407.688 43.22 407.688 42.3C407.688 41.3933 408.008 40.62 408.648 39.98C409.288 39.34 410.068 39.02 410.988 39.02C411.895 39.02 412.668 39.34 413.308 39.98C413.948 40.62 414.268 41.3933 414.268 42.3C414.268 43.22 413.948 44 413.308 44.64C412.668 45.28 411.895 45.6 410.988 45.6ZM429.909 45.48C427.576 45.48 425.529 45.0133 423.769 44.08C422.009 43.1333 420.642 41.82 419.669 40.14C418.709 38.46 418.229 36.52 418.229 34.32C418.229 32.0933 418.709 30.1667 419.669 28.54C420.642 26.9 422.009 25.6267 423.769 24.72C425.529 23.8133 427.576 23.36 429.909 23.36C431.656 23.36 433.202 23.62 434.549 24.14C435.896 24.6467 437.022 25.32 437.929 26.16C438.836 27 439.522 27.92 439.989 28.92C440.456 29.92 440.689 30.9133 440.689 31.9C440.689 31.9133 440.689 31.94 440.689 31.98C440.689 32.0067 440.689 32.0333 440.689 32.06H434.549C434.549 31.98 434.542 31.9067 434.529 31.84C434.529 31.76 434.516 31.68 434.489 31.6C434.382 31.04 434.149 30.5133 433.789 30.02C433.429 29.5267 432.922 29.1267 432.269 28.82C431.629 28.5 430.829 28.34 429.869 28.34C428.842 28.34 427.922 28.5667 427.109 29.02C426.309 29.4733 425.676 30.1467 425.209 31.04C424.742 31.92 424.509 33.0133 424.509 34.32C424.509 35.6 424.742 36.7067 425.209 37.64C425.676 38.56 426.309 39.2667 427.109 39.76C427.922 40.2533 428.842 40.5 429.869 40.5C430.922 40.5 431.782 40.34 432.449 40.02C433.116 39.6867 433.616 39.2467 433.949 38.7C434.282 38.14 434.482 37.5267 434.549 36.86H440.689C440.689 37.8467 440.456 38.8533 439.989 39.88C439.536 40.8933 438.856 41.82 437.949 42.66C437.056 43.5 435.936 44.18 434.589 44.7C433.242 45.22 431.682 45.48 429.909 45.48ZM455.201 45.46C452.907 45.46 450.887 44.9867 449.141 44.04C447.394 43.0933 446.027 41.7933 445.041 40.14C444.067 38.4733 443.581 36.5533 443.581 34.38C443.581 32.22 444.067 30.3133 445.041 28.66C446.027 26.9933 447.394 25.7 449.141 24.78C450.887 23.8467 452.907 23.38 455.201 23.38C457.494 23.38 459.514 23.8467 461.261 24.78C463.007 25.7 464.367 26.9933 465.341 28.66C466.327 30.3133 466.821 32.22 466.821 34.38C466.821 36.5533 466.327 38.4733 465.341 40.14C464.367 41.7933 463.007 43.0933 461.261 44.04C459.514 44.9867 457.494 45.46 455.201 45.46ZM455.201 40.54C456.281 40.54 457.221 40.2867 458.021 39.78C458.821 39.2733 459.441 38.56 459.881 37.64C460.321 36.7067 460.541 35.62 460.541 34.38C460.541 33.14 460.321 32.0667 459.881 31.16C459.441 30.24 458.821 29.5333 458.021 29.04C457.221 28.5467 456.281 28.3 455.201 28.3C454.134 28.3 453.194 28.5467 452.381 29.04C451.581 29.5333 450.961 30.24 450.521 31.16C450.081 32.0667 449.861 33.14 449.861 34.38C449.861 35.62 450.081 36.7067 450.521 37.64C450.961 38.56 451.581 39.2733 452.381 39.78C453.194 40.2867 454.134 40.54 455.201 40.54ZM483.953 45V36.78C483.953 35.9933 483.953 35.3133 483.953 34.74C483.953 34.1533 483.953 33.6667 483.953 33.28C483.953 32.7333 483.92 32.1933 483.853 31.66C483.8 31.1267 483.667 30.6333 483.453 30.18C483.253 29.7133 482.94 29.3467 482.513 29.08C482.087 28.8 481.507 28.66 480.773 28.66C480.093 28.66 479.507 28.8067 479.013 29.1C478.52 29.38 478.113 29.7733 477.793 30.28C477.487 30.7733 477.26 31.3467 477.113 32C476.967 32.64 476.893 33.3133 476.893 34.02L475.193 32.62C475.193 30.82 475.52 29.2267 476.173 27.84C476.827 26.44 477.753 25.3467 478.953 24.56C480.167 23.76 481.6 23.36 483.253 23.36C485.027 23.36 486.407 23.74 487.393 24.5C488.393 25.2467 489.093 26.2467 489.493 27.5C489.907 28.74 490.113 30.1133 490.113 31.62C490.113 32.1933 490.113 32.9667 490.113 33.94C490.113 34.9133 490.113 36.08 490.113 37.44V45H483.953ZM470.693 45V23.76H476.893V45H470.693ZM497.153 45V36.8C497.153 35.9867 497.153 35.2867 497.153 34.7C497.153 34.1133 497.153 33.6267 497.153 33.24C497.153 32.6533 497.12 32.0933 497.053 31.56C496.987 31.0133 496.847 30.52 496.633 30.08C496.42 29.64 496.1 29.2933 495.673 29.04C495.247 28.7867 494.667 28.66 493.933 28.66C493.253 28.66 492.667 28.8067 492.173 29.1C491.693 29.38 491.3 29.7667 490.993 30.26C490.687 30.7533 490.46 31.3133 490.313 31.94C490.18 32.5667 490.113 33.22 490.113 33.9L488.413 32.52C488.413 30.7467 488.733 29.1733 489.373 27.8C490.027 26.4267 490.947 25.3467 492.133 24.56C493.333 23.76 494.767 23.36 496.433 23.36C498.167 23.36 499.533 23.7267 500.533 24.46C501.547 25.1933 502.267 26.1733 502.693 27.4C503.133 28.6133 503.353 29.9733 503.353 31.48C503.353 32.08 503.353 32.8533 503.353 33.8C503.353 34.7467 503.353 35.9 503.353 37.26V45H497.153Z" fill="#00D4AA"/>
</svg>
