<svg width="71" height="16" viewBox="0 0 71 16" fill="none" xmlns="http://www.w3.org/2000/svg">
<path d="M7.65207 15.7104C10.3073 15.7104 12.6698 14.4142 13.9241 12.3235L11.039 10.651C10.4327 11.7591 9.13649 12.449 7.65207 12.449C6.35587 12.449 5.31052 12.0517 4.53697 11.2573C3.76341 10.4628 3.38709 9.41746 3.38709 8.10034C3.38709 6.7832 3.76341 5.73786 4.53697 4.9434C5.31052 4.14894 6.35587 3.75171 7.65207 3.75171C9.13649 3.75171 10.3909 4.39982 11.039 5.5497L13.9241 3.87715C12.6488 1.78646 10.2655 0.490234 7.65207 0.490234C5.45687 0.490234 3.63798 1.22198 2.1954 2.68546C0.752825 4.12803 0.0419922 5.94693 0.0419922 8.10034C0.0419922 10.2537 0.752825 12.0726 2.1954 13.5361C3.63798 14.9787 5.45687 15.7104 7.65207 15.7104Z" fill="black"/>
<path d="M24.9529 10.9742C24.9854 10.7202 25.0017 10.4592 25.0017 10.1913C25.0017 8.64418 24.4581 7.34797 23.3919 6.28171C22.3256 5.21545 21.0085 4.67188 19.4613 4.67188C17.9142 4.67188 16.5971 5.21545 15.5309 6.28171C15.0898 6.72272 14.7382 7.20306 14.4775 7.72425H19.4613H19.6141V7.72811C20.2352 7.75997 20.7502 7.98867 21.1757 8.41422C21.6356 8.87415 21.8657 9.45955 21.8657 10.1913C21.8657 10.4737 21.8314 10.7342 21.7629 10.9742H24.9529Z" fill="black"/>
<path d="M24.4577 12.6464H19.7231C19.638 12.6541 19.5509 12.658 19.4617 12.658C18.7718 12.658 18.2073 12.428 17.7474 11.9681C17.2874 11.5081 17.0574 10.9227 17.0574 10.1909C17.0574 9.90406 17.0928 9.63964 17.1635 9.39648H13.9718C13.9382 9.65361 13.9214 9.91838 13.9214 10.1909C13.9214 11.7381 14.465 13.0552 15.5312 14.1215C16.5975 15.1877 17.9146 15.7104 19.4617 15.7104C21.0088 15.7104 22.3259 15.1877 23.3922 14.1215C23.8401 13.6735 24.1958 13.1813 24.4577 12.6464Z" fill="black"/>
<path d="M25.7305 12.6465V15.4177H28.8665V12.6465H25.7305Z" fill="black"/>
<path d="M25.7305 10.9742H28.8665V9.71043C28.8665 8.28875 29.6191 7.55703 30.8108 7.55703C31.8771 7.55703 32.6297 8.22608 32.6297 9.45955V10.9742H35.7658V8.99962C35.7658 7.64068 35.3894 6.59531 34.6368 5.82176C33.9051 5.0482 32.9642 4.67188 31.8562 4.67188C30.4972 4.67188 29.4937 5.09002 28.8665 5.94719V4.96457H25.7305V10.9742Z" fill="black"/>
<path d="M32.6294 12.6465H35.7655V15.4177H32.6294V12.6465Z" fill="black"/>
<path d="M37.8146 14.1211C37.4018 13.6731 37.0776 13.1809 36.8403 12.646H41.2128C41.4489 12.7095 41.7033 12.7412 41.9751 12.7412C42.7069 12.7412 43.3131 12.5112 43.7731 12.0512C44.233 11.5913 44.463 10.9641 44.463 10.1905C44.463 9.87264 44.4242 9.57945 44.3465 9.3125H47.5991V15.4173H44.463V14.4347C43.7313 15.2919 42.6859 15.71 41.3479 15.71C39.9681 15.71 38.7972 15.1873 37.8146 14.1211Z" fill="black"/>
<path d="M48.29 4.96484V7.64095H51.426V4.96484H48.29Z" fill="black"/>
<path d="M51.426 9.3125V10.9223C51.426 12.1558 52.1787 12.8249 53.245 12.8249C54.4366 12.8249 55.1893 12.0931 55.1893 10.6714V9.3125H58.3253V15.4173H55.1893V14.4347C54.5621 15.2919 53.5586 15.71 52.1997 15.71C51.0916 15.71 50.1507 15.3336 49.3981 14.5601C48.6664 13.7865 48.29 12.7412 48.29 11.3823V9.3125H51.426Z" fill="black"/>
<path d="M67.5196 4.96407H69.673V7.97463H67.5196V11.6752C67.5196 12.5115 68.1467 12.6578 69.673 12.5742V15.4175C67.6868 15.6266 66.3069 15.4384 65.5334 14.853C64.7598 14.2467 64.3835 13.2014 64.3835 11.6752V7.97463H62.7109V4.96407H64.3835V2.97792L67.5196 2.03711V4.96407Z" fill="black"/>
<path d="M47.599 0.783203V7.64068H41.9771H41.6464V7.65696C41.0603 7.71682 40.5662 7.94139 40.177 8.33058C39.7171 8.79051 39.4871 9.41774 39.4871 10.1913C39.4871 10.4718 39.5174 10.7332 39.5779 10.9742H36.3944C36.3655 10.7202 36.3511 10.4592 36.3511 10.1913C36.3511 8.64419 36.8319 7.34798 37.8146 6.28172C38.7972 5.21546 39.968 4.67188 41.3478 4.67188C42.6859 4.67188 43.7312 5.09002 44.4629 5.9472V0.783203H47.599Z" fill="black"/>
<path d="M58.3255 7.64095V4.96484H55.1895V7.64095H58.3255Z" fill="black"/>
<path d="M61.6341 4.81108C62.3022 4.14299 62.3022 3.10373 61.6341 2.45419C60.9846 1.7861 59.9453 1.7861 59.2772 2.45419C58.6277 3.10373 58.6277 4.14299 59.2772 4.81108C59.9453 5.46061 60.9846 5.46061 61.6341 4.81108Z" fill="black"/>
<path d="M62.0887 6.57422V15.4177H58.9526V9.27726C60.345 8.86821 61.4859 7.87158 62.0887 6.57422Z" fill="black"/>
</svg>
