<svg width="80" height="20" viewBox="0 0 80 20" fill="none" xmlns="http://www.w3.org/2000/svg">
<path d="M27.1746 14.3974H24.1049V18.1663H21.043V7.50391H28.382C31.8396 7.50391 32.8425 9.26153 32.8425 10.8863C32.8425 12.0761 32.2353 13.4704 30.4172 14.039L33.274 18.1712H29.7945L27.1746 14.3974ZM24.1049 12.4626H28.1648C29.6498 12.4626 30.089 11.7268 30.089 10.977C30.089 10.2271 29.6505 9.53421 28.1796 9.53421H24.1049V12.4626Z" fill="black"/>
<path d="M46.5557 16.0503V18.1663H35.5757V7.50391H46.4496V9.61994H38.6384V11.7697H46.1896V13.7522H38.6433V16.0503H46.5564H46.5557Z" fill="black"/>
<path d="M58.6581 16.0215H52.6544L51.6564 18.1712H48.3682L53.745 7.50391H57.5688L62.9359 18.1712H59.6617L58.6588 16.0215H58.6581ZM53.5616 14.0818H57.7473L55.6404 9.31916L53.5623 14.0818H53.5616Z" fill="black"/>
<path d="M76.783 11.0487C76.783 13.332 74.9937 14.7888 72.2164 14.7888H68.0307V18.1712H64.9688V7.50391H72.2937C75.0999 7.50391 76.783 8.84127 76.783 11.0487ZM74.0492 11.1246C74.0492 10.102 73.3212 9.5335 72.0337 9.5335H68.0314V12.7627H72.014C73.3064 12.7627 74.0485 12.1612 74.0485 11.1239L74.0492 11.1246Z" fill="black"/>
<path d="M14.426 5.53197C14.6256 5.14404 14.6635 5.06955 14.8631 4.68162L13.1244 2.16992H10.6809C10.4806 2.55926 10.4427 2.63234 10.2424 3.02098L11.5833 4.95781L11.1939 5.71469H7.78903C7.58663 6.0977 7.54657 6.1743 7.34417 6.55801L9.3049 9.38947L8.6963 10.5729H4.34265C4.14095 10.958 4.1016 11.0332 3.8999 11.4184L8.56769 18.1649L13.8061 18.1607C14.012 17.7679 14.0521 17.6906 14.258 17.2977L9.64504 10.6249L9.88047 10.1674L13.2615 10.1639C13.4618 9.77529 13.4997 9.7022 13.7 9.31357L11.7604 6.51022L12.2586 5.5411L14.4267 5.53197H14.426Z" fill="black"/>
</svg>
